<svg width="350" height="350" viewBox="0 0 350 350" fill="none" xmlns="http://www.w3.org/2000/svg">
<rect width="350" height="350" fill="#1E1E1E"/>
<rect width="350" height="350" fill="#120B0D"/>
<path d="M12.3516 139C13.0026 136.826 13.8815 132.008 14.9883 124.547C15.5352 120.862 15.9779 117.424 16.3164 114.234C15.6523 112.984 15.0339 111.988 14.4609 111.246C15.2422 111.155 16.0365 110.973 16.8438 110.699C18.0286 110.296 18.875 109.892 19.3828 109.488V109.527L19.4219 109.488L19.4023 109.527C19.793 111.116 21.2122 115.797 23.6602 123.57C25.431 129.169 26.6615 132.379 27.3516 133.199C28.0677 132.171 29.4609 128.85 31.5312 123.238C33.4844 117.939 34.6953 114.391 35.1641 112.594C35.099 112.411 34.9753 112.151 34.793 111.812L34.4609 111.188C36.0365 111.005 37.6315 110.452 39.2461 109.527L39.3828 109.449V109.469V109.488C39.3828 113.668 39.7539 118.297 40.4961 123.375C41.3945 129.495 42.3451 133.87 43.3477 136.5C43.5169 136.943 43.6341 137.177 43.6992 137.203C42.8138 137.307 42.0195 137.49 41.3164 137.75C40.1836 138.167 39.3372 138.583 38.7773 139C38.8034 138.753 38.8164 138.447 38.8164 138.082C38.7904 135.621 38.3346 130.823 37.4492 123.688C37.0846 120.732 36.681 118.251 36.2383 116.246L33.3281 123.355C31.2839 128.538 30.0143 132.913 29.5195 136.48C29.4674 136.858 29.4349 137.053 29.4219 137.066L29.4414 137.262C27.8659 137.444 26.2708 137.997 24.6562 138.922L24.5195 139C24.1029 135.068 22.7812 130.12 20.5547 124.156C19.5 121.331 18.5234 118.928 17.625 116.949C17.2604 119.124 16.8763 121.682 16.4727 124.625C15.8477 129.104 15.457 133.167 15.3008 136.812L15.2812 137.262C14.2917 137.457 13.3411 138.01 12.4297 138.922L12.3516 139ZM46.6484 118.727C47.1953 118.674 47.7161 118.583 48.2109 118.453C48.7188 118.31 49.181 118.154 49.5977 117.984C50.0273 117.802 50.4049 117.62 50.7305 117.438C51.069 117.255 51.349 117.086 51.5703 116.93C51.0625 120.354 50.8086 123.655 50.8086 126.832C50.8346 127.392 50.8542 127.893 50.8672 128.336C50.8932 128.779 50.9258 129.182 50.9648 129.547C51.0039 129.898 51.069 130.224 51.1602 130.523C51.2513 130.81 51.375 131.083 51.5312 131.344C51.9089 131.904 52.3385 132.405 52.8203 132.848C53.3151 133.29 53.9206 133.694 54.6367 134.059C55.3529 134.41 56.1992 134.742 57.1758 135.055C58.1654 135.354 59.3438 135.647 60.7109 135.934H60.7305C60.7435 135.452 60.75 134.97 60.75 134.488C60.763 133.993 60.7695 133.499 60.7695 133.004V132.32C60.7565 129.182 60.6979 126.546 60.5938 124.41C60.4896 122.275 60.3073 120.615 60.0469 119.43L59.8906 118.727C60.4375 118.674 60.9583 118.583 61.4531 118.453C61.9609 118.31 62.4232 118.154 62.8398 117.984C63.2695 117.802 63.6471 117.62 63.9727 117.438C64.3112 117.255 64.5911 117.086 64.8125 116.93C64.526 118.896 64.3112 120.966 64.168 123.141C64.0378 125.315 63.9727 127.62 63.9727 130.055C63.9857 133.492 64.0508 136.376 64.168 138.707C64.2982 141.038 64.474 142.815 64.6953 144.039L64.8125 144.703C64.0312 144.794 63.2435 144.977 62.4492 145.25C61.6549 145.536 60.8021 145.934 59.8906 146.441C60.112 144.983 60.2943 143.421 60.4375 141.754C60.5807 140.087 60.6784 138.284 60.7305 136.344L56.4531 139C55.9062 138.857 55.2422 138.603 54.4609 138.238C53.6797 137.861 52.8919 137.385 52.0977 136.812C51.3034 136.227 50.5677 135.543 49.8906 134.762C49.2135 133.98 48.6992 133.102 48.3477 132.125C47.8398 130.875 47.5664 129.508 47.5273 128.023C47.4622 126.122 47.3711 124.462 47.2539 123.043C47.1367 121.611 46.987 120.406 46.8047 119.43L46.6484 118.727ZM83.3477 139C83.6341 136.995 83.849 135.12 83.9922 133.375C84.1354 131.617 84.207 129.97 84.207 128.434C84.207 126.663 84.1289 124.938 83.9727 123.258C83.8294 121.578 83.6602 119.951 83.4648 118.375L83.3477 117.711C84.1419 117.62 84.9297 117.438 85.7109 117.164C86.5052 116.878 87.3581 116.48 88.2695 115.973C87.9701 117.913 87.7422 119.677 87.5859 121.266C87.4427 122.841 87.3711 124.267 87.3711 125.543L87.3906 126.422C87.5339 129.365 87.651 131.65 87.7422 133.277C87.8464 134.905 87.931 135.901 87.9961 136.266L88.9141 136.715C89.9297 137.079 90.9128 137.262 91.8633 137.262C94.0898 137.262 95.9779 136.331 97.5273 134.469C98.1523 133.583 98.6797 132.743 99.1094 131.949C99.5391 131.155 99.8841 130.367 100.145 129.586C100.418 128.792 100.607 127.991 100.711 127.184C100.828 126.363 100.887 125.484 100.887 124.547C100.887 123.531 100.809 122.607 100.652 121.773C100.509 120.927 100.281 120.146 99.9688 119.43C99.6562 118.714 99.2591 118.049 98.7773 117.438C98.3086 116.812 97.7422 116.214 97.0781 115.641C96.2708 114.938 95.2878 114.365 94.1289 113.922C92.9831 113.479 91.6745 113.258 90.2031 113.258C89.526 113.258 88.8034 113.342 88.0352 113.512C87.2799 113.668 86.5117 113.902 85.7305 114.215C84.9492 114.514 84.1745 114.879 83.4062 115.309C82.638 115.738 81.9089 116.22 81.2188 116.754L82.5273 111.637L85.6914 110.387C86.668 110.1 87.5729 109.879 88.4062 109.723C89.2396 109.553 90.0013 109.469 90.6914 109.469C91.2513 109.469 91.8633 109.521 92.5273 109.625C93.1914 109.716 93.901 109.892 94.6562 110.152C95.4245 110.413 96.2253 110.777 97.0586 111.246C97.8919 111.715 98.7578 112.32 99.6562 113.062C100.255 113.557 100.822 114.182 101.355 114.938C101.902 115.693 102.378 116.559 102.781 117.535C103.198 118.512 103.523 119.592 103.758 120.777C104.005 121.949 104.129 123.212 104.129 124.566C104.129 125.986 103.979 127.307 103.68 128.531C103.393 129.742 103.016 130.849 102.547 131.852C102.078 132.854 101.538 133.74 100.926 134.508C100.327 135.276 99.7148 135.914 99.0898 136.422C98.0482 137.268 96.9805 137.906 95.8867 138.336C94.806 138.766 93.6732 138.987 92.4883 139L88.2695 137.203C87.6055 137.281 87.0195 137.392 86.5117 137.535C86.0169 137.665 85.5742 137.815 85.1836 137.984C84.793 138.154 84.4479 138.329 84.1484 138.512C83.862 138.681 83.5951 138.844 83.3477 139ZM109.344 115.875C109.591 114.807 109.715 113.688 109.715 112.516C109.715 112.164 109.702 111.812 109.676 111.461C109.663 111.109 109.63 110.758 109.578 110.406L109.461 109.996C111.141 109.827 112.84 109.247 114.559 108.258L114.695 108.18C114.487 108.922 114.383 109.983 114.383 111.363C114.383 111.728 114.396 112.132 114.422 112.574C114.461 113.004 114.513 113.479 114.578 114C114.044 114.065 113.51 114.169 112.977 114.312C112.456 114.443 111.961 114.599 111.492 114.781C111.036 114.951 110.62 115.133 110.242 115.328C109.878 115.523 109.578 115.706 109.344 115.875ZM109.676 139C109.923 137.034 110.105 135.25 110.223 133.648C110.353 132.034 110.418 130.576 110.418 129.273C110.418 128.219 110.405 127.236 110.379 126.324C110.366 125.4 110.333 124.527 110.281 123.707C110.229 122.874 110.158 122.073 110.066 121.305C109.988 120.536 109.891 119.762 109.773 118.98L109.676 118.668C110.47 118.577 111.258 118.395 112.039 118.121C112.833 117.835 113.641 117.464 114.461 117.008L114.598 116.93C113.947 119.182 113.621 122.314 113.621 126.324V127.008C113.621 130.667 113.895 133.831 114.441 136.5L114.598 137.203C114.038 137.268 113.504 137.372 112.996 137.516C112.501 137.646 112.039 137.796 111.609 137.965C111.193 138.134 110.815 138.31 110.477 138.492C110.151 138.674 109.884 138.844 109.676 139ZM136.629 137.379C136.134 138.499 135.242 139.801 133.953 141.285C133.094 142.275 132.293 143.023 131.551 143.531L127.215 146.324C125.991 145.855 125.294 145.576 125.125 145.484C124.422 145.107 123.543 144.43 122.488 143.453C122.072 143.036 121.694 142.607 121.355 142.164L124.891 140.406L126.609 142.008C127.664 142.997 129.09 143.492 130.887 143.492C131.017 143.492 131.154 143.492 131.297 143.492L131.336 143.473C132.169 142.809 132.82 141.129 133.289 138.434C133.471 137.366 133.569 136.467 133.582 135.738C133.621 133.004 133.641 131.155 133.641 130.191C133.641 129.97 133.641 129.781 133.641 129.625C133.628 128.831 133.621 128.303 133.621 128.043C133.621 126.533 133.322 125.387 132.723 124.605C131.889 123.368 130.763 122.424 129.344 121.773C127.99 121.148 126.115 120.497 123.719 119.82C122.99 121.07 122.514 122.301 122.293 123.512C122.085 124.658 121.98 125.712 121.98 126.676C121.98 127.132 122.033 127.626 122.137 128.16C122.397 129.488 122.879 130.66 123.582 131.676C124.324 132.796 125.418 133.707 126.863 134.41C128.27 135.087 130.203 135.712 132.664 136.285L128.523 139C127.911 138.844 126.98 138.447 125.73 137.809C124.832 137.353 123.855 136.65 122.801 135.699C121.655 134.579 120.848 133.336 120.379 131.969C119.845 130.51 119.578 129.13 119.578 127.828C119.578 126.409 119.865 124.983 120.438 123.551C121.049 122.014 121.792 120.934 122.664 120.309L123.348 119.723L127.801 116.949C128.699 117.184 129.624 117.568 130.574 118.102C131.421 118.583 132.391 119.286 133.484 120.211C135.151 121.617 136.219 122.802 136.688 123.766L136.746 127.926C136.837 131.35 136.941 133.525 137.059 134.449C137.176 135.374 137.234 135.849 137.234 135.875L136.629 137.379ZM143.094 115.875C143.341 114.807 143.465 113.688 143.465 112.516C143.465 112.164 143.452 111.812 143.426 111.461C143.413 111.109 143.38 110.758 143.328 110.406L143.211 109.996C144.891 109.827 146.59 109.247 148.309 108.258L148.445 108.18C148.237 108.922 148.133 109.983 148.133 111.363C148.133 111.728 148.146 112.132 148.172 112.574C148.211 113.004 148.263 113.479 148.328 114C147.794 114.065 147.26 114.169 146.727 114.312C146.206 114.443 145.711 114.599 145.242 114.781C144.786 114.951 144.37 115.133 143.992 115.328C143.628 115.523 143.328 115.706 143.094 115.875ZM143.426 139C143.673 137.034 143.855 135.25 143.973 133.648C144.103 132.034 144.168 130.576 144.168 129.273C144.168 128.219 144.155 127.236 144.129 126.324C144.116 125.4 144.083 124.527 144.031 123.707C143.979 122.874 143.908 122.073 143.816 121.305C143.738 120.536 143.641 119.762 143.523 118.98L143.426 118.668C144.22 118.577 145.008 118.395 145.789 118.121C146.583 117.835 147.391 117.464 148.211 117.008L148.348 116.93C147.697 119.182 147.371 122.314 147.371 126.324V127.008C147.371 130.667 147.645 133.831 148.191 136.5L148.348 137.203C147.788 137.268 147.254 137.372 146.746 137.516C146.251 137.646 145.789 137.796 145.359 137.965C144.943 138.134 144.565 138.31 144.227 138.492C143.901 138.674 143.634 138.844 143.426 139ZM154.793 139C155.079 137.034 155.288 134.964 155.418 132.789C155.561 130.615 155.633 128.31 155.633 125.875C155.633 125.458 155.633 125.074 155.633 124.723C155.633 124.371 155.626 124.052 155.613 123.766L155.496 119.312C154.559 119.339 153.667 119.391 152.82 119.469C151.987 119.547 151.18 119.658 150.398 119.801C150.581 119.514 150.75 119.13 150.906 118.648C151.049 118.154 151.16 117.581 151.238 116.93L151.551 117.027C151.928 117.145 152.436 117.229 153.074 117.281C153.712 117.32 154.487 117.359 155.398 117.398C155.333 116.188 155.262 115.126 155.184 114.215C155.105 113.303 155.014 112.529 154.91 111.891L154.793 111.227C155.587 111.135 156.375 110.953 157.156 110.68C157.951 110.393 158.803 109.996 159.715 109.488C159.35 111.806 159.096 114.456 158.953 117.438C159.943 117.411 160.861 117.359 161.707 117.281C162.566 117.19 163.367 117.073 164.109 116.93C163.68 117.815 163.413 118.772 163.309 119.801L162.996 119.723C162.553 119.618 161.987 119.547 161.297 119.508C160.607 119.456 159.799 119.404 158.875 119.352C158.862 119.938 158.849 120.523 158.836 121.109C158.836 121.695 158.836 122.301 158.836 122.926V123.609C158.849 126.747 158.908 129.384 159.012 131.52C159.116 133.655 159.298 135.315 159.559 136.5L159.715 137.203C159.246 137.268 158.764 137.372 158.27 137.516C157.775 137.646 157.299 137.802 156.844 137.984C156.401 138.154 155.997 138.329 155.633 138.512C155.268 138.694 154.988 138.857 154.793 139ZM165.535 122.594C165.874 121.812 166.447 121.096 167.254 120.445L168.172 119.703L172.625 116.93C173.367 117.125 174.285 117.503 175.379 118.062C176.421 118.596 177.397 119.306 178.309 120.191C179.454 121.311 180.262 122.516 180.73 123.805C181.238 125.055 181.512 126.422 181.551 127.906C181.642 131.604 181.883 134.469 182.273 136.5L182.43 137.203C181.544 137.307 180.75 137.49 180.047 137.75C178.914 138.167 178.068 138.583 177.508 139C178.003 135.484 178.25 131.988 178.25 128.512C178.25 128.342 178.25 128.167 178.25 127.984C178.25 126.5 178.016 125.367 177.547 124.586C176.727 123.375 175.594 122.431 174.148 121.754C172.846 121.142 170.919 120.556 168.367 119.996C168.159 120.322 168.055 120.888 168.055 121.695C168.055 122.203 168.139 122.867 168.309 123.688L165.535 122.594ZM173.387 139C172.645 138.74 171.466 138.193 169.852 137.359C168.641 136.734 167.469 135.797 166.336 134.547C165.503 133.245 165.086 132.04 165.086 130.934C165.086 130.908 165.086 130.875 165.086 130.836C165.281 129.26 166.01 127.984 167.273 127.008C169.409 125.367 172.085 124.534 175.301 124.508C171.329 125.966 169.031 127.594 168.406 129.391C168.276 129.768 168.211 130.133 168.211 130.484C168.211 131.083 168.419 131.617 168.836 132.086C169.956 133.219 170.9 133.974 171.668 134.352C174.025 135.51 175.965 136.161 177.488 136.305L173.387 139ZM187.312 139C187.872 135.094 188.152 130.719 188.152 125.875C188.152 125.159 188.146 124.456 188.133 123.766C188.029 118.062 187.794 114.104 187.43 111.891L187.312 111.227C188.901 111.044 190.496 110.491 192.098 109.566L192.234 109.488C191.648 113.186 191.355 117.665 191.355 122.926C191.355 123.147 191.355 123.375 191.355 123.609C191.355 129.859 191.596 134.156 192.078 136.5L192.234 137.203C191.349 137.307 190.555 137.49 189.852 137.75C188.719 138.167 187.872 138.583 187.312 139ZM224.812 136.246C224.943 135.361 225.04 134.527 225.105 133.746C225.171 132.952 225.203 132.203 225.203 131.5V130.953C225.19 129.964 225.132 129.02 225.027 128.121C224.923 127.21 224.741 126.324 224.48 125.465L224.344 125.016C225.125 124.924 225.913 124.742 226.707 124.469C227.501 124.195 228.354 123.798 229.266 123.277C228.432 125.23 228.016 127.6 228.016 130.387V130.875C228.016 133.31 228.361 135.257 229.051 136.715L229.246 137.203C228.686 137.268 228.152 137.372 227.645 137.516C227.15 137.646 226.688 137.802 226.258 137.984C225.841 138.154 225.464 138.329 225.125 138.512C224.799 138.681 224.533 138.844 224.324 139C224.415 138.544 224.5 138.095 224.578 137.652C224.656 137.197 224.728 136.76 224.793 136.344L220.574 139C220.079 138.87 219.526 138.674 218.914 138.414C218.302 138.154 217.664 137.828 217 137.438C216.349 137.047 215.685 136.598 215.008 136.09C214.344 135.569 213.712 134.99 213.113 134.352C212.514 133.714 211.967 133.017 211.473 132.262C210.978 131.507 210.581 130.693 210.281 129.82C209.578 127.815 209.227 125.96 209.227 124.254C209.227 123.134 209.376 121.988 209.676 120.816C209.988 119.645 210.411 118.518 210.945 117.438C211.492 116.357 212.137 115.367 212.879 114.469C213.621 113.557 214.428 112.802 215.301 112.203L219.637 109.41C219.988 109.514 220.424 109.671 220.945 109.879C221.466 110.087 222.046 110.367 222.684 110.719C223.322 111.057 223.999 111.48 224.715 111.988C225.431 112.496 226.154 113.108 226.883 113.824C227.286 114.241 227.658 114.671 227.996 115.113L224.109 117.027C223.523 116.285 222.924 115.654 222.312 115.133C221.701 114.599 221.049 114.15 220.359 113.785C219.669 113.421 218.927 113.115 218.133 112.867C217.352 112.62 216.486 112.411 215.535 112.242L215.516 112.262C214.396 112.913 213.543 114.638 212.957 117.438C212.566 119.312 212.371 120.999 212.371 122.496C212.371 123.421 212.469 124.397 212.664 125.426C212.859 126.441 213.191 127.451 213.66 128.453C214.142 129.456 214.78 130.426 215.574 131.363C216.382 132.301 217.397 133.154 218.621 133.922C220.457 135.094 222.521 135.868 224.812 136.246ZM234.598 122.594C234.936 121.812 235.509 121.096 236.316 120.445L237.234 119.703L241.688 116.93C242.43 117.125 243.348 117.503 244.441 118.062C245.483 118.596 246.46 119.306 247.371 120.191C248.517 121.311 249.324 122.516 249.793 123.805C250.301 125.055 250.574 126.422 250.613 127.906C250.704 131.604 250.945 134.469 251.336 136.5L251.492 137.203C250.607 137.307 249.812 137.49 249.109 137.75C247.977 138.167 247.13 138.583 246.57 139C247.065 135.484 247.312 131.988 247.312 128.512C247.312 128.342 247.312 128.167 247.312 127.984C247.312 126.5 247.078 125.367 246.609 124.586C245.789 123.375 244.656 122.431 243.211 121.754C241.909 121.142 239.982 120.556 237.43 119.996C237.221 120.322 237.117 120.888 237.117 121.695C237.117 122.203 237.202 122.867 237.371 123.688L234.598 122.594ZM242.449 139C241.707 138.74 240.529 138.193 238.914 137.359C237.703 136.734 236.531 135.797 235.398 134.547C234.565 133.245 234.148 132.04 234.148 130.934C234.148 130.908 234.148 130.875 234.148 130.836C234.344 129.26 235.073 127.984 236.336 127.008C238.471 125.367 241.147 124.534 244.363 124.508C240.392 125.966 238.094 127.594 237.469 129.391C237.339 129.768 237.273 130.133 237.273 130.484C237.273 131.083 237.482 131.617 237.898 132.086C239.018 133.219 239.962 133.974 240.73 134.352C243.087 135.51 245.027 136.161 246.551 136.305L242.449 139ZM256.375 139C256.622 137.034 256.805 135.25 256.922 133.648C257.052 132.034 257.117 130.576 257.117 129.273C257.117 128.219 257.104 127.236 257.078 126.324C257.065 125.4 257.033 124.527 256.98 123.707C256.928 122.874 256.857 122.073 256.766 121.305C256.688 120.536 256.59 119.762 256.473 118.98L256.375 118.668C257.169 118.577 257.957 118.395 258.738 118.121C259.533 117.835 260.34 117.464 261.16 117.008L261.297 116.93C261.167 117.307 261.03 117.724 260.887 118.18C260.743 118.622 260.6 119.091 260.457 119.586L264.734 116.93C265.255 117.073 265.9 117.327 266.668 117.691C267.449 118.043 268.237 118.512 269.031 119.098C269.826 119.671 270.568 120.354 271.258 121.148C271.961 121.93 272.488 122.815 272.84 123.805L269.305 125.25C268.771 124.273 268.159 123.453 267.469 122.789C266.779 122.112 266.069 121.565 265.34 121.148C264.611 120.719 263.895 120.413 263.191 120.23C262.488 120.035 261.857 119.938 261.297 119.938C261.023 119.938 260.75 119.957 260.477 119.996H260.457C260.405 120.478 260.366 121.246 260.34 122.301C260.327 123.342 260.32 124.684 260.32 126.324V127.008C260.32 130.667 260.594 133.831 261.141 136.5L261.297 137.203C260.789 137.268 260.288 137.366 259.793 137.496C259.298 137.626 258.829 137.783 258.387 137.965C257.957 138.134 257.566 138.31 257.215 138.492C256.863 138.674 256.583 138.844 256.375 139ZM287.156 125.66C286.505 123.902 285.346 122.49 283.68 121.422C282.625 120.745 280.737 120.172 278.016 119.703L277.996 119.723C277.632 120.413 277.228 121.591 276.785 123.258C276.473 124.43 276.316 125.536 276.316 126.578C276.316 126.995 276.349 127.418 276.414 127.848C276.583 128.954 277.065 130.12 277.859 131.344C278.641 132.555 279.767 133.499 281.238 134.176C282.527 134.775 284.363 135.348 286.746 135.895C287.033 133.212 287.189 130.198 287.215 126.852C287.202 126.448 287.182 126.051 287.156 125.66ZM291.277 109.488C290.717 113.395 290.438 117.77 290.438 122.613C290.438 123.095 290.444 123.798 290.457 124.723C290.535 130.257 290.77 134.215 291.16 136.598L291.277 137.262C289.702 137.444 288.107 137.997 286.492 138.922L286.355 139C286.473 138.219 286.583 137.405 286.688 136.559L282.781 139C282.013 138.805 281.089 138.427 280.008 137.867C278.784 137.229 277.807 136.52 277.078 135.738C276.036 134.618 275.236 133.414 274.676 132.125C274.116 130.953 273.836 129.586 273.836 128.023C273.836 127.971 273.836 127.945 273.836 127.945C273.901 126.435 274.22 124.996 274.793 123.629C275.197 122.665 275.841 121.656 276.727 120.602C277 120.276 277.391 119.924 277.898 119.547L282.039 116.93C282.794 117.073 283.725 117.438 284.832 118.023C285.548 118.401 286.297 118.909 287.078 119.547C286.974 117.073 286.772 114.521 286.473 111.891L286.395 111.52L286.355 111.285V111.227C287.918 111.044 289.513 110.491 291.141 109.566L291.277 109.488ZM305.086 139.078C304.318 138.896 303.393 138.518 302.312 137.945C301.232 137.359 300.255 136.65 299.383 135.816C298.237 134.71 297.436 133.505 296.98 132.203C296.538 131.122 296.258 129.755 296.141 128.102V128.023C296.141 126.63 296.46 125.191 297.098 123.707C297.579 122.574 298.224 121.565 299.031 120.68C299.37 120.315 299.76 119.964 300.203 119.625L304.305 116.93C304.995 117.164 306.173 117.711 307.84 118.57C309.051 119.195 310.223 120.133 311.355 121.383C312.189 122.685 312.605 123.889 312.605 124.996C312.605 125.022 312.605 125.055 312.605 125.094C312.41 126.682 311.681 127.958 310.418 128.922C308.27 130.562 305.594 131.396 302.391 131.422C306.427 130.042 308.816 128.447 309.559 126.637C309.715 126.259 309.793 125.888 309.793 125.523C309.793 125.51 309.793 125.497 309.793 125.484C309.793 125.471 309.793 125.458 309.793 125.445C309.793 124.898 309.565 124.365 309.109 123.844C308.393 122.997 307.365 122.242 306.023 121.578C303.732 120.445 301.87 119.807 300.438 119.664C299.943 120.471 299.493 121.695 299.09 123.336C298.777 124.612 298.621 125.719 298.621 126.656C298.621 127.099 298.654 127.522 298.719 127.926C298.901 129.085 299.383 130.25 300.164 131.422C300.971 132.62 302.098 133.564 303.543 134.254C304.793 134.853 306.714 135.445 309.305 136.031L309.324 136.012C309.533 135.686 309.637 135.12 309.637 134.312C309.637 133.805 309.552 133.141 309.383 132.32L312.156 133.414C311.805 134.208 311.232 134.924 310.438 135.562C309.839 136.044 309.539 136.292 309.539 136.305L305.086 139.078ZM317.508 139C318.003 135.094 318.25 131.852 318.25 129.273C318.25 127.984 318.243 127.281 318.23 127.164C318.204 124.13 317.996 121.402 317.605 118.98L317.508 118.668C319.083 118.486 320.678 117.932 322.293 117.008L322.43 116.93C322.169 117.698 321.889 118.583 321.59 119.586L325.867 116.93C326.609 117.125 327.527 117.503 328.621 118.062C329.637 118.596 330.613 119.306 331.551 120.191C332.697 121.285 333.504 122.49 333.973 123.805C334.48 125.055 334.754 126.422 334.793 127.906C334.91 131.695 335.151 134.56 335.516 136.5L335.672 137.203C334.799 137.307 334.005 137.49 333.289 137.75C332.156 138.167 331.31 138.583 330.75 139C331.258 135.589 331.512 132.288 331.512 129.098C331.499 128.681 331.492 128.31 331.492 127.984C331.492 126.487 331.258 125.354 330.789 124.586C330.008 123.44 328.875 122.496 327.391 121.754C326.089 121.103 324.161 120.517 321.609 119.996H321.59C321.499 120.947 321.453 123.056 321.453 126.324V127.008C321.453 130.667 321.727 133.831 322.273 136.5L322.43 137.203C321.544 137.307 320.75 137.49 320.047 137.75C318.914 138.167 318.068 138.583 317.508 139Z" fill="#D7BE69"/>
<path d="M176 200C176.006 198 175.612 196.019 174.841 194.174C174.07 192.329 172.938 190.656 171.511 189.255C170.085 187.853 168.392 186.751 166.533 186.014C164.674 185.276 162.687 184.917 160.687 184.959C158.688 185.001 156.717 185.442 154.891 186.256C153.064 187.071 151.419 188.242 150.052 189.702C148.685 191.162 147.624 192.88 146.93 194.756C146.237 196.632 145.926 198.627 146.015 200.625C143.076 201.381 140.348 202.795 138.036 204.762C135.725 206.728 133.891 209.194 132.674 211.974C131.457 214.754 130.889 217.774 131.012 220.807C131.135 223.839 131.947 226.803 133.385 229.475C130.856 231.53 128.867 234.171 127.592 237.17C126.316 240.168 125.793 243.433 126.067 246.68C126.341 249.927 127.404 253.058 129.164 255.8C130.924 258.542 133.327 260.813 136.165 262.415C135.815 265.126 136.024 267.88 136.779 270.508C137.535 273.135 138.821 275.579 140.559 277.69C142.296 279.8 144.448 281.532 146.881 282.779C149.314 284.025 151.977 284.76 154.705 284.937C157.433 285.114 160.168 284.73 162.742 283.808C165.316 282.887 167.673 281.447 169.669 279.579C171.664 277.71 173.256 275.453 174.345 272.945C175.434 270.438 175.997 267.734 176 265V200Z" stroke="#D7BE69" stroke-width="8" stroke-linecap="round" stroke-linejoin="round"/>
<path d="M161 240C165.198 238.523 168.863 235.835 171.533 232.275C174.203 228.715 175.758 224.443 176 220" stroke="#D7BE69" stroke-width="8" stroke-linecap="round" stroke-linejoin="round"/>
<path d="M146.015 200.625C146.114 203.044 146.797 205.402 148.005 207.5" stroke="#D7BE69" stroke-width="8" stroke-linecap="round" stroke-linejoin="round"/>
<path d="M133.385 229.48C134.3 228.735 135.279 228.072 136.31 227.5" stroke="#D7BE69" stroke-width="8" stroke-linecap="round" stroke-linejoin="round"/>
<path d="M146 265C142.554 265.002 139.166 264.113 136.165 262.42" stroke="#D7BE69" stroke-width="8" stroke-linecap="round" stroke-linejoin="round"/>
<path d="M176 240H196" stroke="#D7BE69" stroke-width="8" stroke-linecap="round" stroke-linejoin="round"/>
<path d="M176 265H206C208.652 265 211.196 266.054 213.071 267.929C214.946 269.804 216 272.348 216 275V280" stroke="#D7BE69" stroke-width="8" stroke-linecap="round" stroke-linejoin="round"/>
<path d="M176 215H216" stroke="#D7BE69" stroke-width="8" stroke-linecap="round" stroke-linejoin="round"/>
<path d="M196 215V200C196 197.348 197.054 194.804 198.929 192.929C200.804 191.054 203.348 190 206 190" stroke="#D7BE69" stroke-width="8" stroke-linecap="round" stroke-linejoin="round"/>
<path d="M196 242.5C197.381 242.5 198.5 241.381 198.5 240C198.5 238.619 197.381 237.5 196 237.5C194.619 237.5 193.5 238.619 193.5 240C193.5 241.381 194.619 242.5 196 242.5Z" stroke="#D7BE69" stroke-width="8" stroke-linecap="round" stroke-linejoin="round"/>
<path d="M206 192.5C207.381 192.5 208.5 191.381 208.5 190C208.5 188.619 207.381 187.5 206 187.5C204.619 187.5 203.5 188.619 203.5 190C203.5 191.381 204.619 192.5 206 192.5Z" stroke="#D7BE69" stroke-width="8" stroke-linecap="round" stroke-linejoin="round"/>
<path d="M216 282.5C217.381 282.5 218.5 281.381 218.5 280C218.5 278.619 217.381 277.5 216 277.5C214.619 277.5 213.5 278.619 213.5 280C213.5 281.381 214.619 282.5 216 282.5Z" stroke="#D7BE69" stroke-width="8" stroke-linecap="round" stroke-linejoin="round"/>
<path d="M216 217.5C217.381 217.5 218.5 216.381 218.5 215C218.5 213.619 217.381 212.5 216 212.5C214.619 212.5 213.5 213.619 213.5 215C213.5 216.381 214.619 217.5 216 217.5Z" stroke="#D7BE69" stroke-width="8" stroke-linecap="round" stroke-linejoin="round"/>
<rect x="116" y="139" width="43.66" height="30" rx="3" fill="#444444"/>
<rect x="116.5" y="139.5" width="42.66" height="29" rx="2.5" stroke="white" stroke-opacity="0.0980392"/>
<path d="M125.281 157.125C124.719 157.125 124.234 156.992 123.828 156.727C123.422 156.461 123.109 156.095 122.891 155.629C122.672 155.163 122.563 154.63 122.563 154.031C122.563 153.422 122.674 152.884 122.898 152.418C123.125 151.949 123.44 151.583 123.844 151.32C124.25 151.055 124.724 150.922 125.266 150.922C125.687 150.922 126.068 151 126.406 151.156C126.745 151.312 127.022 151.531 127.238 151.812C127.454 152.094 127.589 152.422 127.641 152.797H126.719C126.648 152.523 126.492 152.281 126.25 152.07C126.01 151.857 125.688 151.75 125.281 151.75C124.922 151.75 124.607 151.844 124.336 152.031C124.068 152.216 123.858 152.478 123.707 152.816C123.559 153.152 123.484 153.547 123.484 154C123.484 154.464 123.557 154.867 123.703 155.211C123.852 155.555 124.06 155.822 124.328 156.012C124.599 156.202 124.917 156.297 125.281 156.297C125.521 156.297 125.738 156.255 125.934 156.172C126.129 156.089 126.294 155.969 126.43 155.812C126.565 155.656 126.661 155.469 126.719 155.25H127.641C127.589 155.604 127.46 155.923 127.254 156.207C127.051 156.488 126.781 156.712 126.445 156.879C126.112 157.043 125.724 157.125 125.281 157.125ZM128.988 157V151H129.91V157H128.988ZM129.457 150C129.277 150 129.122 149.939 128.992 149.816C128.865 149.694 128.801 149.547 128.801 149.375C128.801 149.203 128.865 149.056 128.992 148.934C129.122 148.811 129.277 148.75 129.457 148.75C129.637 148.75 129.79 148.811 129.918 148.934C130.048 149.056 130.113 149.203 130.113 149.375C130.113 149.547 130.048 149.694 129.918 149.816C129.79 149.939 129.637 150 129.457 150ZM131.599 157V151H132.489V151.906H132.552C132.661 151.609 132.859 151.368 133.146 151.184C133.432 150.999 133.755 150.906 134.114 150.906C134.182 150.906 134.267 150.908 134.368 150.91C134.47 150.913 134.547 150.917 134.599 150.922V151.859C134.567 151.852 134.496 151.84 134.384 151.824C134.274 151.806 134.159 151.797 134.036 151.797C133.744 151.797 133.484 151.858 133.255 151.98C133.028 152.1 132.849 152.267 132.716 152.48C132.586 152.691 132.521 152.932 132.521 153.203V157H131.599ZM137.946 157.125C137.384 157.125 136.899 156.992 136.493 156.727C136.087 156.461 135.774 156.095 135.556 155.629C135.337 155.163 135.228 154.63 135.228 154.031C135.228 153.422 135.34 152.884 135.563 152.418C135.79 151.949 136.105 151.583 136.509 151.32C136.915 151.055 137.389 150.922 137.931 150.922C138.353 150.922 138.733 151 139.071 151.156C139.41 151.312 139.687 151.531 139.903 151.812C140.119 152.094 140.254 152.422 140.306 152.797H139.384C139.313 152.523 139.157 152.281 138.915 152.07C138.675 151.857 138.353 151.75 137.946 151.75C137.587 151.75 137.272 151.844 137.001 152.031C136.733 152.216 136.523 152.478 136.372 152.816C136.224 153.152 136.149 153.547 136.149 154C136.149 154.464 136.222 154.867 136.368 155.211C136.517 155.555 136.725 155.822 136.993 156.012C137.264 156.202 137.582 156.297 137.946 156.297C138.186 156.297 138.403 156.255 138.599 156.172C138.794 156.089 138.959 155.969 139.095 155.812C139.23 155.656 139.326 155.469 139.384 155.25H140.306C140.254 155.604 140.125 155.923 139.919 156.207C139.716 156.488 139.446 156.712 139.11 156.879C138.777 157.043 138.389 157.125 137.946 157.125ZM145.435 154.547V151H146.356V157H145.435V155.984H145.372C145.231 156.289 145.013 156.548 144.716 156.762C144.419 156.973 144.044 157.078 143.591 157.078C143.216 157.078 142.882 156.996 142.591 156.832C142.299 156.665 142.07 156.415 141.903 156.082C141.737 155.746 141.653 155.323 141.653 154.812V151H142.575V154.75C142.575 155.187 142.698 155.536 142.942 155.797C143.19 156.057 143.505 156.187 143.888 156.187C144.117 156.187 144.35 156.129 144.587 156.012C144.826 155.895 145.027 155.715 145.188 155.473C145.353 155.23 145.435 154.922 145.435 154.547ZM148.045 157V151H148.967V157H148.045ZM148.514 150C148.334 150 148.179 149.939 148.049 149.816C147.921 149.694 147.857 149.547 147.857 149.375C147.857 149.203 147.921 149.056 148.049 148.934C148.179 148.811 148.334 148.75 148.514 148.75C148.693 148.75 148.847 148.811 148.975 148.934C149.105 149.056 149.17 149.203 149.17 149.375C149.17 149.547 149.105 149.694 148.975 149.816C148.847 149.939 148.693 150 148.514 150ZM153.265 151V151.781H150.155V151H153.265ZM151.062 149.562H151.983V155.281C151.983 155.542 152.021 155.737 152.097 155.867C152.175 155.995 152.274 156.081 152.394 156.125C152.516 156.167 152.645 156.187 152.78 156.187C152.882 156.187 152.965 156.182 153.03 156.172C153.095 156.159 153.147 156.148 153.187 156.141L153.374 156.969C153.312 156.992 153.224 157.016 153.112 157.039C153 157.065 152.858 157.078 152.687 157.078C152.426 157.078 152.171 157.022 151.921 156.91C151.674 156.798 151.468 156.628 151.304 156.398C151.142 156.169 151.062 155.88 151.062 155.531V149.562Z" fill="white"/>
</svg>
